# xmcd CD database file
#
# Track frame offsets:
#	150
#	15992
#	29410
#	45567
#	59450
#	75212
#	93625
#	109692
#	129279
#	148157
#	165022
#
# Disc length: 2745 seconds
#
# Revision: 1
# Processed by: cddbd v1.5.1PL0 Copyright (c) Steve Scherf et al.
# Submitted via: CDex 1.51
#
DISCID=7b0ab70b
DTITLE=Short, Shari - I'm Living
DYEAR=2001
DGENRE=Pop
TTITLE0=I'm Living
TTITLE1=Never
TTITLE2=Breathe
TTITLE3=You Blew It
TTITLE4=Forever You
TTITLE5=Waiting For Your Call
TTITLE6=I Forgot
TTITLE7=Keep It Inside
TTITLE8=Doesn't Matter
TTITLE9=Desperately Waiting
TTITLE10=I Do (plus hidden track, "Pulled The Trigger")
EXTD=YEAR: 2001
EXTT0=
EXTT1=
EXTT2=
EXTT3=
EXTT4=
EXTT5=
EXTT6=
EXTT7=
EXTT8=
EXTT9=
EXTT10=
PLAYORDER=
